<svg xmlns="http://www.w3.org/2000/svg" width="1200" height="500" viewBox="0 0 1200 500">
<rect width="100%" height="100%" fill="#ffffff"/>
<text x="600.00" y="38.00" font-family="Times New Roman" font-size="20" font-weight="bold" text-anchor="middle">Доля завершений по таймауту в процессе обучения</text>
<rect x="120.00" y="95.00" width="102.27" height="270.00" fill="#f7f7f7" stroke="none"/>
<text x="171.14" y="113.00" font-family="Times New Roman" font-size="12" font-weight="normal" text-anchor="middle">Стадия 1</text>
<rect x="233.64" y="95.00" width="102.27" height="270.00" fill="#eeeeee" stroke="none"/>
<line x1="233.64" y1="95.00" x2="233.64" y2="365.00" stroke="#555555" stroke-width="1.0" stroke-dasharray="5 5"/>
<text x="284.77" y="113.00" font-family="Times New Roman" font-size="12" font-weight="normal" text-anchor="middle">Стадия 2</text>
<rect x="347.27" y="95.00" width="159.09" height="270.00" fill="#f7f7f7" stroke="none"/>
<line x1="347.27" y1="95.00" x2="347.27" y2="365.00" stroke="#555555" stroke-width="1.0" stroke-dasharray="5 5"/>
<text x="426.82" y="113.00" font-family="Times New Roman" font-size="12" font-weight="normal" text-anchor="middle">Стадия 3</text>
<rect x="517.73" y="95.00" width="102.27" height="270.00" fill="#eeeeee" stroke="none"/>
<line x1="517.73" y1="95.00" x2="517.73" y2="365.00" stroke="#555555" stroke-width="1.0" stroke-dasharray="5 5"/>
<text x="568.86" y="113.00" font-family="Times New Roman" font-size="12" font-weight="normal" text-anchor="middle">Стадия 4</text>
<rect x="631.36" y="95.00" width="488.64" height="270.00" fill="#f7f7f7" stroke="none"/>
<line x1="631.36" y1="95.00" x2="631.36" y2="365.00" stroke="#555555" stroke-width="1.0" stroke-dasharray="5 5"/>
<text x="875.68" y="113.00" font-family="Times New Roman" font-size="12" font-weight="normal" text-anchor="middle">Стадия 5</text>
<rect x="120.00" y="95.00" width="1000.00" height="270.00" fill="none" stroke="#000000" stroke-width="1.2"/>
<line x1="115.00" y1="365.00" x2="120.00" y2="365.00" stroke="#000000" stroke-width="1.0"/>
<line x1="120.00" y1="365.00" x2="1120.00" y2="365.00" stroke="#dddddd" stroke-width="0.8"/>
<text x="110.00" y="369.00" font-family="Times New Roman" font-size="11" font-weight="normal" text-anchor="end">-0.08</text>
<line x1="115.00" y1="297.50" x2="120.00" y2="297.50" stroke="#000000" stroke-width="1.0"/>
<line x1="120.00" y1="297.50" x2="1120.00" y2="297.50" stroke="#dddddd" stroke-width="0.8"/>
<text x="110.00" y="301.50" font-family="Times New Roman" font-size="11" font-weight="normal" text-anchor="end">0.21</text>
<line x1="115.00" y1="230.00" x2="120.00" y2="230.00" stroke="#000000" stroke-width="1.0"/>
<line x1="120.00" y1="230.00" x2="1120.00" y2="230.00" stroke="#dddddd" stroke-width="0.8"/>
<text x="110.00" y="234.00" font-family="Times New Roman" font-size="11" font-weight="normal" text-anchor="end">0.50</text>
<line x1="115.00" y1="162.50" x2="120.00" y2="162.50" stroke="#000000" stroke-width="1.0"/>
<line x1="120.00" y1="162.50" x2="1120.00" y2="162.50" stroke="#dddddd" stroke-width="0.8"/>
<text x="110.00" y="166.50" font-family="Times New Roman" font-size="11" font-weight="normal" text-anchor="end">0.79</text>
<line x1="115.00" y1="95.00" x2="120.00" y2="95.00" stroke="#000000" stroke-width="1.0"/>
<line x1="120.00" y1="95.00" x2="1120.00" y2="95.00" stroke="#dddddd" stroke-width="0.8"/>
<text x="110.00" y="99.00" font-family="Times New Roman" font-size="11" font-weight="normal" text-anchor="end">1.08</text>
<text x="620.00" y="77.00" font-family="Times New Roman" font-size="16" font-weight="bold" text-anchor="middle">Доля таймаутов</text>
<text x="65.00" y="230.00" font-family="Times New Roman" font-size="13" font-weight="normal" text-anchor="middle" transform="rotate(-90 65.00 230.00)">timeout rate</text>
<polyline points="120.00,346.38 131.36,346.38 142.73,346.38 154.09,346.38 165.45,346.38 176.82,346.38 188.18,346.38 199.55,346.38 210.91,346.38 222.27,346.38 233.64,346.38 245.00,346.38 256.36,334.13 267.73,346.38 279.09,346.38 290.45,334.13 301.82,346.38 313.18,317.28 324.55,334.13 335.91,346.38 347.27,307.59 358.64,276.55 370.00,284.31 381.36,294.66 392.73,310.57 404.09,294.66 415.45,302.74 426.82,307.59 438.18,253.28 449.55,268.79 460.91,299.83 472.27,261.74 483.64,307.59 495.00,302.74 506.36,307.59 517.73,338.07 529.09,329.75 540.45,333.91 551.82,346.38 563.18,346.38 574.55,346.38 585.91,346.38 597.27,346.38 608.64,346.38 620.00,346.38 631.36,346.38 642.73,346.38 654.09,250.54 665.45,299.83 676.82,240.58 688.18,253.28 699.55,288.19 710.91,221.05 722.27,253.28 733.64,259.09 745.00,307.59 756.36,221.05 767.73,253.28 779.09,180.12 790.45,113.62 801.82,157.26 813.18,307.59 824.55,171.81 835.91,200.91 847.27,249.40 858.64,242.93 870.00,183.45 881.36,217.07 892.73,240.58 904.09,180.12 915.45,256.86 926.82,230.00 938.18,191.21 949.55,259.09 960.91,139.48 972.27,210.60 983.64,246.63 995.00,165.34 1006.36,217.07 1017.73,171.81 1029.09,191.21 1040.45,142.72 1051.82,155.94 1063.18,217.07 1074.55,142.72 1085.91,113.62 1097.27,198.26 1108.64,152.41 1120.00,136.90" fill="none" stroke="#9a9a9a" stroke-width="1.0" stroke-opacity="0.55" stroke-linejoin="round" />
<polyline points="120.00,346.38 131.36,346.38 142.73,346.38 154.09,346.38 165.45,346.38 176.82,346.38 188.18,346.38 199.55,346.38 210.91,346.38 222.27,346.38 233.64,346.38 245.00,346.38 256.36,345.15 267.73,345.15 279.09,345.15 290.45,343.93 301.82,343.93 313.18,341.02 324.55,339.79 335.91,339.79 347.27,335.92 358.64,328.93 370.00,323.95 381.36,318.78 392.73,315.20 404.09,311.25 415.45,306.89 426.82,305.92 438.18,297.83 449.55,290.07 460.91,289.30 472.27,287.82 483.64,290.14 495.00,290.95 506.36,290.65 517.73,294.99 529.09,297.70 540.45,300.33 551.82,309.64 563.18,317.40 574.55,322.05 585.91,330.52 597.27,334.40 608.64,338.76 620.00,342.64 631.36,343.47 642.73,345.13 654.09,336.80 665.45,332.14 676.82,321.56 688.18,312.25 699.55,306.43 710.91,293.90 722.27,284.59 733.64,275.86 745.00,271.98 756.36,259.45 767.73,259.72 779.09,247.75 790.45,235.05 801.82,225.45 813.18,227.39 824.55,222.47 835.91,217.23 847.27,216.26 858.64,209.80 870.00,206.04 881.36,202.42 892.73,208.46 904.09,215.11 915.45,225.07 926.82,217.31 938.18,219.25 949.55,225.07 960.91,214.08 972.27,210.85 983.64,217.16 995.00,211.99 1006.36,209.64 1017.73,208.81 1029.09,202.24 1040.45,193.52 1051.82,189.99 1063.18,185.79 1074.55,186.11 1085.91,176.41 1097.27,171.58 1108.64,170.28 1120.00,162.26" fill="none" stroke="#000000" stroke-width="2.4" stroke-opacity="1.0" stroke-linejoin="round" />
<text x="120.00" y="425.00" font-family="Times New Roman" font-size="13" font-weight="normal" text-anchor="start">Рост доли таймаутов на сложных стадиях показывает, что фиксированный лимит шагов был недостаточен для боёв с большим числом существ.</text>
</svg>